HIERARCHY
ROOT Hips
{
	OFFSET 0.000000 0.000000 0.000000 
	CHANNELS 6 Xposition Yposition Zposition Zrotation Yrotation Xrotation
	JOINT LeftUpLeg
	{
		OFFSET 1.363060 -1.794630 0.839290 
		CHANNELS 3 Zrotation Yrotation Xrotation
		JOINT LeftLeg
		{
			OFFSET 2.448110 -6.726130 0.000000 
			CHANNELS 3 Zrotation Yrotation Xrotation
			JOINT LeftFoot
			{
				OFFSET 2.562200 -7.039590 0.000000 
				CHANNELS 3 Zrotation Yrotation Xrotation
				JOINT LeftToeBase
				{
					OFFSET 0.157640 -0.433110 2.322550 
					CHANNELS 3 Zrotation Yrotation Xrotation
					End Site
					{
						OFFSET 0.000000 0.000000 0.000000 
					}
				}
			}
		}
	}
	JOINT RightUpLeg
	{
		OFFSET -1.305520 -1.794630 0.839290 
		CHANNELS 3 Zrotation Yrotation Xrotation
		JOINT RightLeg
		{
			OFFSET -2.542530 -6.985550 0.000000 
			CHANNELS 3 Zrotation Yrotation Xrotation
			JOINT RightFoot
			{
				OFFSET -2.568260 -7.056230 0.000000 
				CHANNELS 3 Zrotation Yrotation Xrotation
				JOINT RightToeBase
				{
					OFFSET -0.164730 -0.452590 2.363150 
					CHANNELS 3 Zrotation Yrotation Xrotation
					End Site
					{
						OFFSET 0.000000 0.000000 0.000000 
					}
				}
			}
		}
	}
	JOINT Spine
	{
		OFFSET 0.028270 2.035590 -0.193380 
		CHANNELS 3 Zrotation Yrotation Xrotation
		JOINT Spine1
		{
			OFFSET 0.056720 2.048850 -0.042750 
			CHANNELS 3 Zrotation Yrotation Xrotation
			JOINT Neck1
			{
				OFFSET -0.054170 1.746240 0.172020 
				CHANNELS 3 Zrotation Yrotation Xrotation
				JOINT Head
				{
					OFFSET 0.104070 1.761360 -0.123970 
					CHANNELS 3 Zrotation Yrotation Xrotation
					End Site
					{
						OFFSET 0.000000 0.000000 0.000000 
					}
				}
			}
			JOINT LeftArm
			{
				OFFSET 3.362410 1.200890 -0.311210 
				CHANNELS 3 Zrotation Yrotation Xrotation
				JOINT LeftForeArm
				{
					OFFSET 4.983000 -0.000000 -0.000000 
					CHANNELS 3 Zrotation Yrotation Xrotation
					JOINT LeftHand
					{
						OFFSET 3.483560 -0.000000 -0.000000 
						CHANNELS 3 Zrotation Yrotation Xrotation
						JOINT LeftHandIndex1
						{
							OFFSET 0.715260 -0.000000 -0.000000 
							CHANNELS 3 Zrotation Yrotation Xrotation
							End Site
							{
								OFFSET 0.000000 0.000000 0.000000 
							}
						}
					}
				}
			}
			JOINT RightArm
			{
				OFFSET -3.136600 1.374050 -0.404650 
				CHANNELS 3 Zrotation Yrotation Xrotation
				JOINT RightForeArm
				{
					OFFSET -5.241900 -0.000000 -0.000000 
					CHANNELS 3 Zrotation Yrotation Xrotation
					JOINT RightHand
					{
						OFFSET -3.444170 -0.000000 -0.000000 
						CHANNELS 3 Zrotation Yrotation Xrotation
						JOINT RightHandIndex1
						{
							OFFSET -0.622530 -0.000000 -0.000000 
							CHANNELS 3 Zrotation Yrotation Xrotation
							End Site
							{
								OFFSET 0.000000 0.000000 0.000000 
							}
						}
					}
				}
			}
		}
	}
}
MOTION
Frames: 13
Frame Time: 0.041667
-9.142269 17.448202 4.523764 173.440051 -84.612375 -167.847850 -40.480713 -20.065347 5.069706 -12.103301 3.550790 8.629419 2.276350 -17.378765 -26.315194 0.269000 -3.336100 -9.216000 31.053901 10.694666 -10.917581 9.802345 -10.356598 22.343819 -1.033059 -5.851155 -20.301855 -3.441800 11.378100 -33.565900 1.264206 1.326236 -4.656132 2.907691 0.957933 -15.276536 2.722666 -2.483193 15.168268 -0.966500 -1.160200 13.127000 -83.796431 16.778221 4.765495 11.734986 -23.660906 -4.197547 0.814183 2.731715 14.702836 -7.125000 0.000000 0.000000 75.157909 -9.854842 25.047243 -24.755044 37.622666 -6.875670 3.195278 -0.757130 -35.088207 7.125000 0.000000 0.000000 
-9.168226 17.464209 4.521385 177.916396 -84.607511 -172.080058 -39.964375 -20.152100 5.132891 -12.132685 3.497249 8.546265 2.606527 -15.632067 -27.332747 0.569300 -4.832100 -13.430400 31.419430 13.667343 -10.204090 10.717089 -9.176887 18.865471 -0.959136 -7.013173 -20.738002 -3.520200 11.493000 -33.961100 1.328650 1.305759 -4.701367 2.946561 0.914595 -15.435687 2.779779 -2.206272 15.176916 -0.862800 -1.058000 13.162900 -83.988756 16.086981 2.666789 10.912151 -22.646197 -3.976717 1.000955 2.661455 16.029324 -7.125000 0.000000 0.000000 74.896010 -10.053688 29.452486 -24.696565 37.426084 -6.467113 2.752858 -1.348978 -31.447212 7.125000 0.000000 0.000000 
-9.207809 17.474375 4.514896 179.953205 -84.653111 -173.910646 -39.828993 -20.348331 5.371115 -12.213251 3.412456 8.400410 2.921593 -13.580083 -28.535546 1.057500 -6.538600 -18.355400 31.480754 16.728590 -9.342258 11.546493 -7.780747 15.131020 -0.656029 -9.867058 -20.435709 -4.458400 12.746600 -38.427100 1.346888 1.268485 -4.713255 2.862534 0.857015 -15.402464 2.761638 -2.047373 15.130126 -0.865100 -0.987000 13.139800 -83.980837 15.356626 1.364473 10.340865 -21.975934 -3.859038 1.062964 2.660737 16.370738 -7.125000 0.000000 0.000000 74.847836 -10.197118 33.212948 -24.555664 37.379370 -6.395317 2.316230 -2.033568 -27.413015 7.125000 0.000000 0.000000 
-9.263723 17.479999 4.503972 179.166352 -84.732503 -172.955180 -40.110914 -20.583167 5.829317 -12.330296 3.256643 8.123629 3.163261 -11.815308 -29.688216 1.583800 -7.939300 -22.530000 31.186354 19.894496 -8.333542 12.114235 -6.214919 11.277066 -0.439628 -11.468271 -19.730808 -5.706300 14.137600 -43.791400 1.346873 1.158749 -4.734423 2.806353 0.783242 -15.342763 2.601448 -1.899768 15.051603 -1.012200 -0.905100 13.050600 -83.949366 14.890783 1.138206 9.964694 -21.604348 -3.796449 1.085160 2.680877 15.991261 -7.125000 0.000000 0.000000 74.831609 -10.351506 36.584996 -24.281347 37.246780 -6.387747 1.838982 -2.531603 -23.646161 7.125000 0.000000 0.000000 
-9.326559 17.483676 4.489048 177.242545 -84.832719 -170.897766 -40.539708 -20.861549 6.374396 -12.414436 3.059672 7.776305 3.286867 -11.311572 -30.393382 1.721000 -8.259100 -23.503800 30.764026 22.756409 -7.344225 12.385209 -4.657568 7.631966 -0.342383 -11.581627 -18.507420 -5.663800 14.094400 -43.617100 1.335348 0.996274 -4.793299 2.846582 0.700088 -15.377299 2.654394 -1.785387 15.164607 -0.948000 -0.862900 13.094900 -84.078048 14.613172 1.273147 9.757094 -21.418729 -3.751731 1.101530 2.692757 15.728430 -7.125000 0.000000 0.000000 74.716950 -10.500927 39.877017 -23.886502 36.949231 -6.312079 1.304666 -2.821244 -20.858828 7.125000 0.000000 0.000000 
-9.393073 17.481513 4.470662 175.469440 -84.939798 -169.000629 -41.004397 -21.387148 7.026172 -12.454793 2.801585 7.309518 3.351303 -12.119815 -30.849827 1.377900 -7.428100 -20.989900 30.367764 24.771541 -6.519271 12.407814 -3.345577 4.663666 -0.423699 -10.065365 -18.234656 -4.117400 12.315000 -36.855800 1.271729 0.922177 -4.839735 2.679401 0.633590 -15.315220 2.761411 -1.812113 15.291557 -0.862600 -0.873400 13.130900 -84.085795 14.303766 2.127304 9.819293 -21.570346 -3.785317 1.071415 2.723104 15.325635 -7.125000 0.000000 0.000000 74.509012 -11.049334 45.322485 -23.562755 36.930201 -6.645624 0.307016 -3.159810 -15.040150 7.125000 0.000000 0.000000 
-9.463479 17.470265 4.452060 173.039418 -85.019467 -166.557352 -41.735990 -22.277573 8.046766 -12.500608 2.394380 6.571887 3.440108 -13.622974 -31.549805 0.841200 -5.850200 -16.350300 30.321898 25.693529 -5.781530 12.428652 -2.500366 2.945215 -0.148911 -12.040887 -12.971341 -4.287400 12.533300 -37.645800 1.170443 0.896834 -4.888970 2.391413 0.576476 -15.251980 3.014064 -1.988288 15.559761 -0.664500 -0.952600 13.279300 -84.040516 13.936695 3.379840 9.913630 -21.751431 -3.811955 1.045143 2.738685 15.110583 -7.125000 0.000000 0.000000 74.754939 -10.720686 46.139471 -23.301566 36.742459 -6.517322 0.288670 -3.170476 -14.943989 7.125000 0.000000 0.000000 
-9.539834 17.452961 4.432268 169.069124 -85.065521 -162.759753 -42.787965 -23.010977 9.362269 -12.622208 1.944857 5.815899 3.667389 -13.680548 -32.817596 0.759200 -5.564800 -15.526600 30.312104 25.913405 -4.836685 12.433813 -1.975533 2.192282 -0.058536 -13.726983 -9.571662 -1.980000 8.824300 -25.247100 1.070155 0.839650 -4.945034 2.171805 0.528816 -15.268890 3.204633 -2.107146 15.888960 -0.513300 -1.007200 13.440800 -84.039014 13.506791 4.845712 9.959567 -21.864847 -3.783590 1.024444 2.734814 14.916677 -7.125000 0.000000 0.000000 75.069325 -10.449667 46.925948 -23.082437 36.596651 -6.415571 0.227758 -3.172327 -14.863574 7.125000 0.000000 0.000000 
-9.628519 17.427004 4.403283 163.220449 -85.005569 -157.197068 -44.145183 -23.327326 10.838962 -12.810483 1.498302 5.124524 3.964027 -12.539831 -34.304460 1.025300 -6.441300 -18.070300 30.210764 26.424821 -3.303215 12.427895 -1.256429 1.152940 -0.002662 -14.090170 -10.895505 -2.067800 9.005900 -25.813800 0.945654 0.799115 -4.964315 1.944423 0.505818 -15.128102 3.273215 -2.257321 16.214537 -0.463000 -1.075500 13.603300 -83.865860 13.141532 7.558044 10.402442 -22.492932 -3.872649 0.922105 2.767831 13.566338 -7.125000 0.000000 0.000000 75.487583 -10.063736 47.599294 -22.796507 36.415405 -6.303440 0.144379 -3.178412 -14.743768 7.125000 0.000000 0.000000 
-9.722286 17.396073 4.366944 156.337545 -84.833031 -150.747743 -45.817552 -23.559772 12.623568 -12.995401 0.973308 4.343264 4.259097 -12.099073 -35.801340 1.108700 -6.689800 -18.799500 30.405342 27.880907 -0.851506 12.525173 -0.028034 -0.767451 0.238895 -17.366943 -11.819959 -1.703800 8.219700 -23.383500 0.788117 0.791513 -4.968811 1.613932 0.495172 -15.007522 3.179570 -2.425168 16.522049 -0.552500 -1.144000 13.749000 -83.551456 13.032952 11.210082 11.421522 -23.748598 -4.108017 0.720027 2.819069 11.382066 -7.125000 0.000000 0.000000 76.036483 -9.622944 48.013260 -22.358827 36.103048 -6.129509 0.101951 -3.203231 -14.187114 7.125000 0.000000 0.000000 
-9.813242 17.373037 4.330714 150.988567 -84.690380 -146.038013 -47.378042 -23.741091 14.646555 -13.102392 0.379654 3.521469 4.455564 -13.334351 -36.883258 0.753100 -5.542700 -15.463200 31.096804 29.410345 2.013790 12.628849 1.183807 -2.514760 0.472197 -19.903994 -13.410731 -1.296600 7.214300 -20.351800 0.634957 0.799702 -4.961028 1.219919 0.474512 -15.004820 3.240313 -2.558069 16.752890 -0.528600 -1.191400 13.825800 -83.386128 12.801763 13.894651 12.388425 -24.843605 -4.313426 0.550094 2.839859 9.922908 -7.125000 0.000000 0.000000 76.765571 -9.273867 47.919796 -21.860813 35.759959 -5.939538 0.079586 -3.237267 -13.499119 7.125000 0.000000 0.000000 
-9.906576 17.361465 4.296538 148.779523 -84.658023 -144.546935 -48.465236 -23.746331 16.649322 -13.147090 -0.206369 2.774200 4.534259 -15.223489 -37.458913 0.418700 -4.153200 -11.508100 32.172708 30.006214 4.393804 12.756434 1.960263 -3.399968 0.572772 -21.236728 -14.034670 -1.516700 7.777000 -22.038700 0.519231 0.843395 -4.925863 0.834848 0.449538 -14.930103 3.349772 -2.621728 16.955991 -0.437300 -1.222600 13.902000 -83.545527 12.039773 14.752903 12.585546 -25.034300 -4.279726 0.541237 2.816168 9.582249 -7.125000 0.000000 0.000000 77.474760 -8.974480 47.604362 -21.443115 35.507649 -5.791836 0.065631 -3.273496 -13.164716 7.125000 0.000000 0.000000 
-9.999046 17.361681 4.265498 151.052037 -84.767444 -147.391452 -48.874970 -23.773919 18.472603 -13.186942 -0.748041 2.088832 4.773355 -15.844886 -38.315304 0.337700 -3.734300 -10.330500 33.533147 30.412369 6.249043 12.908271 2.458343 -3.925289 0.547046 -21.794401 -15.172613 -0.518800 4.616300 -12.817200 0.469383 0.970790 -4.906599 0.477851 0.439614 -14.837201 3.213654 -2.632979 17.179733 -0.502000 -1.249100 13.999300 -84.007137 10.998453 14.416489 12.223986 -24.575189 -4.045309 0.618948 2.753873 9.793383 -7.125000 0.000000 0.000000 77.919461 -8.736305 47.552432 -21.106613 35.282611 -5.662198 0.066882 -3.298349 -13.304283 7.125000 0.000000 0.000000 
